<?xml version="1.0" standalone="no"?><!DOCTYPE svg PUBLIC "-//W3C//DTD SVG 1.1//EN" "http://www.w3.org/Graphics/SVG/1.1/DTD/svg11.dtd"><svg t="1572307059176" class="icon" viewBox="0 0 1024 1024" version="1.1" xmlns="http://www.w3.org/2000/svg" p-id="4322" width="256" height="256" xmlns:xlink="http://www.w3.org/1999/xlink"><defs><style type="text/css"></style></defs><path d="M469.8 572.3c-16 0-30.3-3.2-41.5-11.2L164.9 400c-22.3-14.4-27.1-36.7-27.1-49.5 0-12.8 3.2-35.1 27.1-49.5l263.4-161.2c22.3-14.4 60.7-14.4 84.6 0L776.3 301c23.9 14.4 27.1 36.7 27.1 49.5 0 12.8-3.2 35.1-27.1 49.5L512.9 561.2c-12.8 8-28.8 11.1-43.1 11.1M464.4 669.8c-10.4 0-20.9-2-28.1-6L187.7 511.4h-56.2c0 12.8 4.8 33.7 27.3 46.5l264.7 162c11.2 6.4 27.3 11.2 41.7 11.2M464.4 804.5c-11 0.2-22.1-1.8-29.7-6L181.2 642.9h-51.3c0 12.8 3.2 35.3 27.3 49.7l264.7 162c11.2 6.4 27.3 11.2 41.7 11.2M694.3 740.3c-18.9 0-34.3-15.4-34.3-32.6 0-18.9 15.4-32.6 34.3-32.6s34.3 15.4 34.3 32.6c0 17.2-15.5 32.6-34.3 32.6z m0-104.7c-39.5 0-72.1 32.6-72.1 72.1 0 39.5 32.6 72.1 72.1 72.1 39.5 0 72.1-32.6 72.1-72.1 0-41.2-32.7-72.1-72.1-72.1zM847 730c-17.2 1.7-34.3 10.3-46.3 24-13.7 13.7-22.3 32.6-22.3 53.2 0 8.6 1.7 17.2 3.4 22.3l-32.6 17.2c-3.4-3.4-8.6-6.9-13.7-12-15.4-10.3-29.2-17.2-42.9-17.2s-27.5 5.1-42.9 17.2c-5.1 3.4-8.6 6.9-13.7 12l-31-17.1c1.7-5.1 3.4-13.7 3.4-22.3 0-20.6-6.9-39.5-22.3-53.2-12-12-27.5-20.6-46.3-24-1.7-6.9-1.7-15.4-1.7-24 0-6.9 1.7-17.2 1.7-24 17.2-1.7 34.3-10.3 46.3-24 13.7-13.7 22.3-32.6 22.3-53.2 0-8.6-1.7-17.2-3.4-22.3l34.3-18.9c3.4 3.4 8.6 6.9 13.7 10.3 15.4 10.3 29.2 15.4 42.9 15.4s27.5-5.1 42.9-15.4c5.1-3.4 8.6-6.9 13.7-10.3l32.6 17.2c-1.7 5.1-3.4 13.7-3.4 22.3 0 20.6 6.9 39.5 22.3 53.2 12 12 27.5 20.6 46.3 24 1.7 6.9 1.7 15.4 1.7 24-1.5 10.2-3.3 18.8-5 25.6z m37.8-60c-1.7-6.9-3.4-12-8.6-17.2-5.1-5.1-10.3-6.9-17.2-6.9h-1.7c-22.3 0-39.5-17.2-39.5-39.5 0-5.1 1.7-12 3.4-15.4 5.1-12 1.7-27.5-10.3-36l-46.3-25.7h-1.7c-3.4-1.7-8.6-1.7-12-1.7-8.6 0-17.2 3.4-24 10.3-6.9 6.9-22.3 18.9-30.9 18.9-10.3 0-24-10.3-32.6-18.9-5.1-6.9-13.7-10.3-24-10.3-3.4 0-8.6 0-12 1.7h-1.7L577.6 555c-12 8.6-15.4 24-10.3 36 1.7 1.7 3.4 8.6 3.4 15.4 0 22.3-17.2 39.5-39.5 39.5h-1.7c-6.9 0-12 3.4-15.4 6.9-3.4 3.4-6.9 10.3-8.6 17.2 0 1.7-3.4 22.3-3.4 37.8 0 15.4 3.4 34.3 3.4 37.8 1.7 6.9 3.4 12 8.6 17.2 5.1 5.1 10.3 6.9 15.4 6.9h1.7c22.3 0 39.5 17.2 39.5 39.5 0 5.1-1.7 12-3.4 15.4-5.1 12-1.7 27.5 10.3 36l46.3 25.7c3.4 1.7 8.6 1.7 12 1.7 8.6 0 17.2-3.4 24-10.3 6.9-6.9 22.3-18.9 32.6-18.9s25.7 12 32.6 18.9c5.1 6.9 15.4 10.3 24 10.3 3.4 0 8.6 0 12-1.7h1.7l48.1-25.7c12-8.6 15.4-24 10.3-36-1.7-1.7-3.4-8.6-3.4-15.4 0-22.3 17.2-39.5 39.5-39.5h1.7c6.9 0 12-1.7 17.2-6.9 3.4-3.4 6.9-10.3 8.6-17.2 0 0 3.4-20.6 3.4-37.8 0-17.3-3.4-36.1-3.4-37.8z m0 0" p-id="4323"></path><path d="M749.2 895.4c-9.1 0-22.2-3.4-29.6-12.8-8.1-8-20.8-16.4-27-16.4-6.4 0-19.3 8.6-27.4 16.7-8 8-18.4 12.5-29.3 12.5-4.1 0-10.3 0-15.3-2.5l-0.3-0.2-46.7-26-0.3-0.2c-14.2-10.2-19.6-29.1-12.8-45l0.2-0.4c1.2-2.5 2.6-8.2 2.6-12.1 0-18.3-13.8-32.1-32.1-32.1h-1.7c-7.8 0-14.6-3-20.7-9-6.6-6.6-8.8-13.5-10.5-20.6l-0.2-0.9v-0.9c0-0.8-0.4-3.8-0.8-6.5-1.1-8.1-2.7-20.3-2.7-31.3 0-12.1 2-27.1 3-34.3 0.2-1.5 0.4-3.1 0.5-3.7v-0.7l0.2-0.9c2.1-8.3 6.1-16.2 10.5-20.6 5.9-5.9 13.1-9 20.7-9h1.7c18.3 0 32.1-13.8 32.1-32.1 0-5.1-1.1-9.3-1.7-10.6l-0.6-0.6-0.6-1.3c-6.8-15.9-1.4-34.8 12.8-45l0.8-0.5 49.7-26.6h2.1c4.6-1.7 9.9-1.7 13.5-1.7 12.7 0 23.2 4.5 29.6 12.8 9.8 9.7 20.8 16.4 27 16.4 4.5 0 17.2-8.3 25.7-16.7 8-8 18.4-12.5 29.3-12.5 3.6 0 8.9 0 13.5 1.7h2.1l48.7 27.1c14.2 10.2 19.6 29.1 12.8 45l-0.2 0.4c-1.3 2.5-2.7 8.2-2.7 12.1 0 18.3 13.8 32.1 32.1 32.1h1.7c9.2 0 16.2 2.8 22.4 9 6.6 6.6 8.8 13.5 10.5 20.6l0.2 0.9v0.7c0.1 0.5 0.3 1.9 0.4 3.1 1 6.9 3 21.3 3 34.8 0 17.6-3.4 38.1-3.5 39l-0.1 0.6c-2.1 8.3-6.1 16.2-10.5 20.6-6.2 6.3-13.2 9-22.4 9h-1.7c-18.3 0-32.1 13.8-32.1 32.1 0 5.1 1.1 9.3 1.7 10.6l0.6 0.6 0.6 1.3c6.8 15.9 1.4 34.8-12.8 45l-0.8 0.5-49.7 26.6h-2.1c-4.5 1.9-9.8 1.9-13.4 1.9z m-56.7-44.1c16.6 0 37 20.2 37.9 21.1l0.4 0.4 0.3 0.4c3.2 4.2 10.8 7.3 18.1 7.3 2.4 0 6.8 0 8.7-0.9l1.6-0.8h1.6l46-24.6c9.1-6.8 10.8-18 7.7-26-3.4-5-4.3-14.1-4.3-19.2 0-26.3 20.6-46.9 46.9-46.9h1.7c5.3 0 8.5-1.2 11.9-4.7 2.1-2.1 5-7.3 6.6-13.4 0.4-2.5 3.3-21 3.3-36.3 0-12.5-1.9-26.2-2.9-32.8-0.3-1.9-0.4-3-0.5-3.8-1.6-6.2-2.9-9.6-6.5-13.1-3.5-3.5-6.6-4.7-11.9-4.7h-1.7c-26.3 0-46.9-20.6-46.9-46.9 0-5.8 1.8-13.7 4.1-18.5 3.4-8.1 1.9-19.7-7.5-26.7l-44.3-24.6h-1.5l-1.6-0.8c-1.9-0.9-6.3-0.9-8.7-0.9-6.9 0-13.5 2.9-18.8 8.1-0.2 0.2-21.5 21.1-36.1 21.1-15.6 0-32.9-16.1-37.9-21.1l-0.4-0.4-0.3-0.4c-4.5-6.1-12.4-7.3-18.1-7.3-2.4 0-6.8 0-8.7 0.9l-1.6 0.8h-1.6l-46 24.6c-9.1 6.8-10.8 18-7.7 26 3.4 5 4.3 14.1 4.3 19.2 0 26.3-20.6 46.9-46.9 46.9h-1.7c-3.7 0-7.1 1.6-10.2 4.7-2.1 2.1-4.9 7.2-6.5 13.1-0.1 0.8-0.2 2-0.5 4.2-0.9 6.9-2.8 21.2-2.8 32.3 0 10 1.5 21.7 2.5 29.4 0.5 3.7 0.8 5.9 0.9 7.3 1.6 6.1 2.9 9.5 6.4 13 4.2 4.2 7.6 4.7 10.2 4.7h1.7c26.3 0 46.9 20.6 46.9 46.9 0 5.8-1.8 13.7-4.1 18.5-3.4 8.1-1.9 19.7 7.5 26.7l45.8 25.4c1.9 0.9 6.3 0.9 8.6 0.9 6.9 0 13.5-2.9 18.8-8.1 0.9-0.8 21.2-21 37.8-21z m134.6-31.5z m65.1-149.9z m-394.2 0z m139.2 186L596 833.1l1.9-5.8c1.4-4.2 3.1-12 3.1-20 0-19.7-6.9-36.1-19.8-47.7l-0.3-0.3c-11.6-11.6-25.8-19-42.4-22l-4.7-0.9-1.2-4.6c-1.9-7.8-1.9-16.9-1.9-25.8 0-3.8 0.5-8.4 0.9-12.8 0.4-4 0.8-8.2 0.8-11.3v-6.7l6.7-0.7c15.8-1.6 30.9-9.4 41.5-21.5l0.3-0.4c13-13 20.1-30 20.1-48 0-8-1.6-15.7-3.1-20l-2-5.9 44.6-24.5 3.9 3.9c2.9 2.9 7.8 6.2 12.5 9.3 14.6 9.7 26.9 14.2 38.9 14.2 11.9 0 24.3-4.5 38.8-14.2 2.3-1.5 4.3-3.1 6.4-4.8 2.2-1.8 4.5-3.6 7.4-5.5l3.7-2.4 42.1 22.1-2 6c-1.4 4.2-3.1 12-3.1 20 0 19.7 6.9 36.1 19.8 47.7l0.3 0.3c11.6 11.6 25.8 19 42.4 22l4.7 0.9 1.2 4.6c1.9 7.8 1.9 16.9 1.9 25.8v0.6l-0.1 0.6c-1.7 10.4-3.5 19.3-5.3 26.3l-1.3 5.1-5.2 0.5c-15.8 1.6-30.9 9.4-41.5 21.5l-0.3 0.4c-13 13-20.1 30-20.1 48 0 8 1.6 15.7 3.1 20l2 6-43 22.6-3.9-3.9c-1.3-1.3-3-2.7-5-4.3-2.5-2-5.3-4.3-8.2-7.2-16.4-10.9-27.9-15.5-38.2-15.5-12.5 0-24.7 5-38.4 15.6l-0.4 0.3c-4.5 3-7.6 6.1-12.6 11.1l-3.8 4.1z m55.3-45.7c17.1 0 33.4 9.3 47 18.4l0.6 0.4 0.5 0.5c2.6 2.6 5.2 4.7 7.7 6.7 0.7 0.5 1.3 1.1 1.9 1.6l22.8-12c-1.2-5.2-2.1-11.8-2.1-18.5 0-21.8 8.6-42.5 24.3-58.3 11.8-13.4 28.3-22.6 45.7-25.6 1.3-5.6 2.5-12.2 3.8-19.7 0-6 0-12-0.7-17.2-17.4-4.1-32.5-12.4-45.1-24.9-16.1-14.4-24.6-34.7-24.6-58.6 0-6.7 0.9-13.3 2.1-18.5l-23.3-12.3c-1 0.7-1.9 1.5-2.8 2.2-2.2 1.8-4.5 3.6-7.4 5.5-17.1 11.4-32 16.7-47 16.7s-29.9-5.3-47-16.7c-3.7-2.4-7.4-4.9-10.6-7.5L613.6 586c1.2 5.3 2.2 11.9 2.2 18.6 0 21.8-8.6 42.5-24.3 58.3-11.6 13.2-27.6 22.2-44.7 25.4l-0.6 6.3c-0.4 4-0.8 8.2-0.8 11.3 0 6.2 0 12.5 0.7 17.8 17.4 4.1 32.5 12.4 45.1 24.9 16.1 14.4 24.6 34.7 24.6 58.6 0 6.8-1 13.4-2.2 18.7l20.9 11.6c3.4-3.3 6.5-6.1 10.7-8.8 16.4-12.6 31.5-18.5 47.3-18.5z m1.8-23c-43.8 0-79.5-35.7-79.5-79.5s35.7-79.5 79.5-79.5c44.6 0 79.5 34.9 79.5 79.5 0 43.9-35.7 79.5-79.5 79.5z m0-144.2c-35.7 0-64.7 29-64.7 64.7s29 64.7 64.7 64.7 64.7-29 64.7-64.7c-0.1-36.3-28.5-64.7-64.7-64.7z m0 104.7c-22.6 0-41.7-18.3-41.7-40 0-22.4 18.3-40 41.7-40 22.6 0 41.7 18.3 41.7 40s-19.1 40-41.7 40z m0-65.2c-15.3 0-26.9 10.8-26.9 25.2 0 13.4 12.6 25.2 26.9 25.2 14.3 0 26.9-11.8 26.9-25.2 0-13.4-12.6-25.2-26.9-25.2z" p-id="4324"></path></svg>