<?xml version="1.0" standalone="no"?><!DOCTYPE svg PUBLIC "-//W3C//DTD SVG 1.1//EN" "http://www.w3.org/Graphics/SVG/1.1/DTD/svg11.dtd"><svg t="1572306915506" class="icon" viewBox="0 0 1024 1024" version="1.1" xmlns="http://www.w3.org/2000/svg" p-id="4013" xmlns:xlink="http://www.w3.org/1999/xlink" width="200" height="200"><defs><style type="text/css"></style></defs><path d="M481.454 65.999l357.044 206.14c7.127 4.115 9.57 13.229 5.454 20.356l-53.11 91.99c-4.115 7.128-13.23 9.57-20.357 5.455L413.441 183.8c-7.128-4.114-9.57-13.228-5.455-20.356l53.11-91.99c4.116-7.128 13.23-9.57 20.358-5.455z m175.078 671.352c0.077 0.927 0.169 1.97 0.276 3.127 1.841 20.014-9.438 39.122-27.846 47.172L282.594 939.127c-13.749 6.013-29.548-0.285-35.289-14.067-3.27-7.852-2.663-16.86 1.64-24.313l103.096-178.568 16.497 4.18c42.031 10.65 86.959-8.295 109.346-47.071 27.348-47.367 11.816-107.532-34.69-134.382-46.507-26.851-106.377-10.22-133.725 37.147-21.948 38.017-16.588 85.331 12.281 116.518l11.272 12.176-103.375 179.05c-7.29 12.628-23.251 17.061-35.65 9.903-7.064-4.078-11.76-11.306-12.678-19.508l-42.03-375.975c-2.235-19.98 8.688-39.312 26.96-47.716a462.516 462.516 0 0 0 6.408-2.998c95.018-45.518 166.974-109.99 223.172-200.696 12.565-20.28 38.658-27.085 58.945-15.373l123.974 71.577 122.019 71.053c21.103 12.289 28.526 39.375 16.813 61.307-50.53 95.36-69.876 190.22-61.048 295.98zM419.495 944.223v-14.8c0-8.714 7.064-15.778 15.777-15.778H869.7c8.713 0 15.777 7.064 15.777 15.777v14.801c0 8.714-7.064 15.777-15.777 15.777h-434.43c-8.712 0-15.776-7.063-15.776-15.777z" p-id="4014"></path></svg>