<?xml version="1.0" standalone="no"?><!DOCTYPE svg PUBLIC "-//W3C//DTD SVG 1.1//EN" "http://www.w3.org/Graphics/SVG/1.1/DTD/svg11.dtd"><svg t="1572307153273" class="icon" viewBox="0 0 1024 1024" version="1.1" xmlns="http://www.w3.org/2000/svg" p-id="5376" xmlns:xlink="http://www.w3.org/1999/xlink" width="256" height="256"><defs><style type="text/css"></style></defs><path d="M879 552.7l-48 46.5 46.5 48 48-46.5-46.5-48zM569.7 852l46.5 48 253.1-244.9-46.5-48L569.7 852zM848 122.6c0-32.9-26.7-59.6-59.6-59.6H111v807.8c0 32.9 26.7 59.6 59.6 59.6h263.1L848 515.5V122.6zM492.2 703.9h-69.8v-73.4h69.8v73.4z m114.1-330.1c-7.4 15.6-23.3 35-47.5 58.3-24.2 23.3-40.3 39.8-48.2 49.7-7.9 9.8-13.9 21.6-18 35.3-4.1 13.7-5.9 32-5.4 55.1h-63.4c0-26.9 2.2-48.4 6.5-64.4 4.3-16.1 10.8-30.1 19.4-42.1 8.6-12 24.2-29.6 46.8-52.9 22.6-23.3 37.1-40.2 43.6-50.8 6.5-10.6 9.7-26.3 9.7-47.2 0-20.9-7.4-39.4-22.3-55.4-14.9-16.1-36.5-24.1-64.8-24.1-63.8 0-95.8 37.9-95.8 113.8h-63.4c1-34.6 5-60.8 12.2-78.8 7.2-18 18.7-34.1 34.6-48.2 15.8-14.2 33.5-24.6 52.9-31.3 19.4-6.7 40-10.1 61.6-10.1 43.7 0 80 12.8 109.1 38.5 29 25.7 43.6 59.9 43.6 102.6 0 19-3.8 36.4-11.2 52z m-76.8 565.5l75.5-28.5-44.5-46-31 74.5z" p-id="5377"></path></svg>