<?xml version="1.0" standalone="no"?><!DOCTYPE svg PUBLIC "-//W3C//DTD SVG 1.1//EN" "http://www.w3.org/Graphics/SVG/1.1/DTD/svg11.dtd"><svg t="1557932254815" class="icon" style="" viewBox="0 0 1024 1024" version="1.1" xmlns="http://www.w3.org/2000/svg" p-id="3463" xmlns:xlink="http://www.w3.org/1999/xlink" width="16" height="16"><defs><style type="text/css"></style></defs><path d="M884.447698 1023.964782H139.522538a23.970364 23.970364 0 0 1-23.970364-23.970364v-48.555353h792.865888v48.555353a22.741115 22.741115 0 0 1-23.970364 23.970364zM920.710556 0H103.25968A26.428863 26.428863 0 0 0 79.289316 23.970364v889.361969a26.428863 26.428863 0 0 0 23.970364 23.970364h817.450876a26.428863 26.428863 0 0 0 23.970364-23.970364V23.970364a24.584989 24.584989 0 0 0-23.970364-23.970364z" fill="#2588C4" p-id="3464"></path><path d="M735.093891 417.944809a19.053366 19.053366 0 0 1-19.053366 19.667991H478.180758a19.053366 19.053366 0 0 1-19.053366-19.667991 19.053366 19.053366 0 0 1 19.053366-19.053366h237.859767c9.833996 2.458499 19.053366 9.833996 19.053366 19.053366zM348.494943 401.349942h45.482229a19.667991 19.667991 0 1 1 0 38.721357h-45.482229a19.053366 19.053366 0 0 1-19.053367-19.667991 17.209492 17.209492 0 0 1 19.053367-19.053366zM230.486997 634.29271a47.940728 47.940728 0 0 1 0-95.881456 47.940728 47.940728 0 1 1 0 95.881456zM230.486997 466.500162a48.555353 48.555353 0 0 1-47.940728-48.555353 47.940728 47.940728 0 0 1 47.940728-47.940728 48.555353 48.555353 0 0 1 48.555352 47.940728 49.169978 49.169978 0 0 1-48.555352 48.555353zM230.486997 298.092989a47.940728 47.940728 0 0 1-47.940728-47.940728 48.555353 48.555353 0 0 1 47.940728-48.555353 49.169978 49.169978 0 0 1 48.555352 48.555353 48.555353 48.555353 0 0 1-48.555352 47.940728zM514.443617 605.405348H346.036444a19.053366 19.053366 0 0 1 0-38.106732h168.407173a19.053366 19.053366 0 0 1 19.053366 19.053366 20.282616 20.282616 0 0 1-19.053366 19.053366zM843.267842 658.263074l-170.251048 156.729304a17.824117 17.824117 0 0 1-26.428863-2.458499l-79.286588-72.525717a21.511865 21.511865 0 0 1-2.458499-26.428863 23.355739 23.355739 0 0 1 26.428863-2.458499l69.452593 62.691721 158.573178-144.436809a17.824117 17.824117 0 0 1 26.428862 2.458499 21.511865 21.511865 0 0 1-2.458498 26.428863z" fill="#C7E2F3" p-id="3465"></path></svg>